<?xml version="1.0" encoding="utf-8"?>
<svg version="1.1" id="Layer_1" x="0px" y="0px" style="enable-background:new 0 0 1024 1024;" viewBox="80 300 894.9 332.3" xmlns="http://www.w3.org/2000/svg" xmlns:bx="https://boxy-svg.com">
  <defs>
    <bx:guide x="427.644" y="558.351" angle="0"/>
  </defs>
  <style type="text/css">
	.st0{fill:#070606;}
	.st1{display:none;}
	.st2{display:inline;fill:#FFFFFF;}
	.st3{fill:none;stroke:#EE1989;stroke-width:0.5;stroke-miterlimit:10;}
	.st4{fill:#28747F;}
	.st5{fill:#3CABC3;}
	.st6{clip-path:url(#SVGID_00000001624028933438430020000005659436967093893269_);}
	.st7{fill:#27717C;}
	.st8{fill:#FFFFFF;}
	.st9{fill:#2A2123;}
	.st10{fill:#38A8BE;}
	.st11{fill:url(#SVGID_00000063598820780046916290000002487382903491638438_);}
	.st12{fill:#1B6D74;}
	.st13{fill:url(#SVGID_00000058581477267515963590000011232455121792494221_);}
	.st14{fill:#F9F8F8;}
</style>
  <text style="fill: rgb(202, 88, 0); font-family: Arial, sans-serif; font-size: 94px; font-weight: 700; white-space: pre;" x="741.711" y="581.749">CON</text>
  <g transform="matrix(1, 0, 0, 1, 4, -10)">
    <g>
      <g>
        <path class="st10" d="M347.2,611.4h-212c-16.2,0-29.3-13.1-29.3-29.3v-212c0-16.2,13.1-29.3,29.3-29.3h212 c16.2,0,29.3,13.1,29.3,29.3v212C376.5,598.3,363.4,611.4,347.2,611.4z"/>
        <path class="st10" d="M347.2,611.4h-212c-16.2,0-29.3-13.1-29.3-29.3v-212c0-16.2,13.1-29.3,29.3-29.3h212 c16.2,0,29.3,13.1,29.3,29.3v212C376.5,598.3,363.4,611.4,347.2,611.4z"/>
        <path class="st10" d="M347.2,611.4h-212c-16.2,0-29.3-13.1-29.3-29.3v-212c0-16.2,13.1-29.3,29.3-29.3h212 c16.2,0,29.3,13.1,29.3,29.3v212C376.5,598.3,363.4,611.4,347.2,611.4z"/>
        <g>
          <defs>
            <path id="SVGID_00000169559048342843043790000005893717770967081123_" d="M347.2,611.4h-212c-16.2,0-29.3-13.1-29.3-29.3v-212 c0-16.2,13.1-29.3,29.3-29.3h212c16.2,0,29.3,13.1,29.3,29.3v212C376.5,598.3,363.4,611.4,347.2,611.4z"/>
          </defs>
        </g>
      </g>
      <path class="st12" d="M174,454.7c0.4,1.6,0.8,3.3,1.3,5l-5-5l0,0c0.7,0.6,2,0.7,3.2,0.2L174,454.7z"/>
      <g>
        <path class="st8" d="M242.1,407.4l-0.5-0.4C241.8,407.1,242,407.2,242.1,407.4z"/>
      </g>
      <g>
        <path class="st8" d="M242.6,409.4c0-1.5-0.2-1.9-1-2.4c-0.7-0.5-1.9-0.5-2.9,0l-72,30.8l0,0c-1.1,0.5-2.1,1.4-2.6,2.4 c-0.5,1-0.6,2.1-0.2,2.9l6,11l0.1,0.1c0.6,1,2.1,1.3,3.6,0.6l0.4-0.2c1.9,7.9,5,17.7,9.1,24.8l62.7-28.1 C244.9,443.3,242.5,419.9,242.6,409.4z"/>
        <path class="st8" d="M247.6,460.7l-60.4,27c3.6,6.7,7.9,13.9,13.3,20.8l0,0c17.7-9,35.5-18.1,53.2-27.1 C252.5,478.4,251.4,475.1,247.6,460.7z"/>
        <path class="st8" d="M338.7,525.1l-4.3-6.5c-0.6-0.7-1.6-1-2.5-0.6l-5.5,2.1c-0.6-0.7-1.6-1-2.5-0.6c-1.8,0.7-3.6,1.4-5.4,2.1 c-0.6,0.2-0.7,0.7-0.6,1.2l0.3,1.7c-10.1,1.1-27.2,0.5-42.5-11.5c-6.8-5.3-13.1-12.8-18.4-23.3l-50.9,26l0,0 c9.3,10.2,21,19.3,35.5,24.8c20.2,7.6,45.9,8.3,78.4-4.7l0.2,0.9c0.2,1,1.4,2.1,3.1,1.5l5.4-2.1c1.8-0.7,1.9-2.1,1.6-3l6.9-2.7 C338.3,529.9,340.7,528,338.7,525.1z"/>
      </g>
    </g>
    <g transform="matrix(1, 0, 0, 1, -0.256024, -38.456478)">
      <g>
        <g>
          <path class="st9" d="M521.7,430.9h-50.2c-5.9,0-10,1.1-12.3,3.4c-2.3,2.3-3.5,6.2-3.5,11.8v19.8h52.2l-2,24.8h-50.2v57.8h-27.8 V435.1c0-10.5,2.3-18,6.9-22.4c4.6-4.4,12.5-6.6,23.7-6.6h63.2V430.9z"/>
          <path class="st9" d="M578.9,548.5l-26,0.2V398.1h26V548.5z"/>
          <path class="st9" d="M812.1,516.9v3c-0.8,10-5,17.5-12.7,22.6c-7.7,5.1-17.2,7.6-28.7,7.6c-16.9,0-28.8-3.1-35.6-9.2 c-6.3-5.6-9.4-13.9-9.4-24.8v-2.4h23.6c0,6.1,1.6,10.3,4.8,12.6c3.2,2.3,8.7,3.4,16.6,3.4c10.7,0,16-3.9,16-11.6 c0-6.4-1.9-10.7-5.6-12.8c-1.7-1.1-3.9-1.9-6.6-2.4l-20.2-3.4c-17.6-2.8-26.4-13.8-26.4-33c0-10.7,3.9-19,11.7-24.9 c7.8-5.9,17.7-8.9,29.7-8.9c27.3,0,41,11.8,41,35.4v2.6h-22.6c-0.3-6.3-1.9-10.5-5-12.8c-3.1-2.3-7.4-3.4-12.9-3.4 c-5.5,0-9.7,1.1-12.5,3.3c-2.8,2.2-4.2,4.6-4.2,7.3c0,7.6,3.1,11.9,9.2,13l24.2,4.4C803.6,485.7,812.1,497.2,812.1,516.9z"/>
          <path class="st9" d="M942.1,548.5h-31.2l-30-40.4l-11.4,16.2v24.2h-26V398.1h26v95l36.4-54.2h29.4l-37.4,51.2L942.1,548.5z"/>
        </g>
      </g>
      <path class="st9" d="M695.5,548.5h-17.4l-8-13.8l-27.8,15c-15.5,0-25.9-5.6-31.2-16.8c-5.7-11.5-6.9-24.5-7-37.5 c0.1-12.6-0.1-15.7,1.2-26.6c1.1-8.3,2.5-13.1,6.6-20c6.4-10.4,16.9-13.4,30.2-13.7c0,0,27.4,0,27.4,0l26-1.6V548.5z M669.5,512.1 v-53.6h-19.8c-7.3,0-12.4,2.8-15.3,8.4c-2.9,5.6-4.3,14-4.3,25.1c0.5,18,1.5,30.2,19.6,30.3L669.5,512.1z"/>
    </g>
  </g>
</svg>